<svg width="32" height="32" viewBox="0 0 32 32" fill="none" xmlns="http://www.w3.org/2000/svg">
<path d="M2 5.04804V13.679C2 15.3585 3.36851 16.727 5.04804 16.727H13.4457C14.4565 16.727 15.273 17.5435 15.273 18.5543V26.952C15.273 28.6315 16.6415 30 18.321 30H26.952C28.6315 30 30 28.6315 30 26.952V5.04804C30 3.36851 28.6315 2 26.952 2H5.04804C3.36851 2 2 3.36851 2 5.04804ZM5.04804 15.1874C4.1694 15.1874 3.45404 14.4721 3.45404 13.5934V4.96251C3.45404 4.08387 4.1694 3.36851 5.04804 3.36851H13.679C14.5576 3.36851 15.273 4.08387 15.273 4.96251V13.5934C15.273 14.4721 14.5576 15.1874 13.679 15.1874H5.04804ZM18.4299 28.5615C17.5512 28.5615 16.8359 27.8462 16.8359 26.9675V18.3366C16.8359 17.4579 17.5512 16.7426 18.4299 16.7426H27.0608C27.9395 16.7426 28.6548 17.4579 28.6548 18.3366V26.9675C28.6548 27.8462 27.9395 28.5615 27.0608 28.5615H18.4299Z" fill="#A5B1C5"/>
<path d="M12.2249 18.1729C13.1036 18.1729 13.8189 18.8882 13.8189 19.7669V28.3978C13.8189 29.2764 13.1036 29.9918 12.2249 29.9918H3.594C2.71536 29.9918 2 29.2764 2 28.3978V19.7669C2 18.8882 2.71536 18.1729 3.594 18.1729H12.2249Z" fill="#A5B1C5"/>
</svg>
